<svg width="1344" height="1305" viewBox="0 0 1344 1305" fill="none" xmlns="http://www.w3.org/2000/svg" xmlns:xlink="http://www.w3.org/1999/xlink">
<g filter="url(#filter0_f_807_653)">
<path fill-rule="evenodd" clip-rule="evenodd" d="M926.918 500.08C903.057 500.08 883.714 519.423 883.714 543.284V589.945C882.759 589.945 881.985 590.719 881.985 591.673V616.732C881.985 617.687 882.759 618.46 883.714 618.46V647.839C882.282 647.839 881.121 649 881.121 650.432V699.685C881.121 701.117 882.282 702.277 883.714 702.277V716.103C882.282 716.103 881.121 717.263 881.121 718.695V767.948C881.121 769.38 882.282 770.54 883.714 770.54V1201.72C883.714 1225.58 903.057 1244.93 926.918 1244.93H1207.75C1231.61 1244.93 1250.95 1225.58 1250.95 1201.72V752.395C1252.38 752.395 1253.55 751.234 1253.55 749.802V668.578C1253.55 667.146 1252.38 665.985 1250.95 665.985V543.284C1250.95 519.423 1231.61 500.08 1207.75 500.08H926.918Z" fill="#596DA6" fill-opacity="0.2"></path>
<path d="M1205.16 504.4H929.51C906.604 504.4 888.034 522.97 888.034 545.876V1199.13C888.034 1222.04 906.604 1240.61 929.51 1240.61H1205.16C1228.06 1240.61 1246.63 1222.04 1246.63 1199.13V545.876C1246.63 522.97 1228.06 504.4 1205.16 504.4Z" fill="#596DA6" fill-opacity="0.2"></path>
<path d="M1202.56 506.992H932.102C909.196 506.992 890.626 525.562 890.626 548.469V1196.54C890.626 1219.44 909.196 1238.01 932.102 1238.01H1202.56C1225.47 1238.01 1244.04 1219.44 1244.04 1196.54V548.469C1244.04 525.562 1225.47 506.992 1202.56 506.992Z" fill="#596DA6" fill-opacity="0.2"></path>
<path d="M1201.7 521.682H932.967C917.696 521.682 905.316 534.062 905.316 549.333V1195.67C905.316 1210.94 917.696 1223.32 932.967 1223.32H1201.7C1216.97 1223.32 1229.35 1210.94 1229.35 1195.67V549.333C1229.35 534.062 1216.97 521.682 1201.7 521.682Z" fill="#596DA6" fill-opacity="0.2"></path>
<path fill-rule="evenodd" clip-rule="evenodd" d="M970.987 521.682C975.135 521.682 977.9 522.978 977.9 526.866V532.051C977.9 540.641 984.864 547.605 993.454 547.605H1142.08C1150.67 547.605 1157.63 540.641 1157.63 532.051V526.866C1157.63 522.978 1160.4 521.682 1164.54 521.682H970.987Z" fill="#596DA6" fill-opacity="0.2"></path>
<path d="M1104.92 536.371C1108.26 536.371 1110.97 533.663 1110.97 530.323C1110.97 526.982 1108.26 524.274 1104.92 524.274C1101.58 524.274 1098.87 526.982 1098.87 530.323C1098.87 533.663 1101.58 536.371 1104.92 536.371Z" fill="#596DA6" fill-opacity="0.2"></path>
<path d="M1104.92 533.779C1106.83 533.779 1108.38 532.232 1108.38 530.323C1108.38 528.414 1106.83 526.866 1104.92 526.866C1103.01 526.866 1101.46 528.414 1101.46 530.323C1101.46 532.232 1103.01 533.779 1104.92 533.779Z" fill="#596DA6" fill-opacity="0.2"></path>
<path d="M1085.05 526.866H1049.62C1047.71 526.866 1046.16 528.414 1046.16 530.323C1046.16 532.232 1047.71 533.779 1049.62 533.779H1085.05C1086.96 533.779 1088.5 532.232 1088.5 530.323C1088.5 528.414 1086.96 526.866 1085.05 526.866Z" fill="#596DA6" fill-opacity="0.2"></path>
<path d="M916.653 1014.43C916.653 997.517 903.126 983.991 886.218 983.991L916.653 1014.43Z" fill="#596DA6" fill-opacity="0.2"></path>
<path d="M947.087 983.991C930.179 983.991 916.653 997.517 916.653 1014.43L947.087 983.991Z" fill="#596DA6" fill-opacity="0.2"></path>
<path d="M977.522 1014.43C977.522 997.517 963.995 983.991 947.087 983.991L977.522 1014.43Z" fill="#596DA6" fill-opacity="0.2"></path>
<path d="M865.601 1031.04H906.382V1074.54H865.601V1031.04Z" fill="#596DA6" fill-opacity="0.2"></path>
<path d="M947.08 983.944C930.172 983.944 916.646 997.47 916.646 1014.38L947.08 983.944Z" fill="#596DA6" fill-opacity="0.2"></path>
<path d="M977.515 1014.38C977.515 997.47 963.989 983.944 947.081 983.944L977.515 1014.38Z" fill="#596DA6" fill-opacity="0.2"></path>
<path d="M1007.95 983.944C991.041 983.944 977.514 997.47 977.514 1014.38L1007.95 983.944Z" fill="#596DA6" fill-opacity="0.2"></path>
<path d="M1038.38 1014.38C1038.38 997.47 1024.86 983.944 1007.95 983.944L1038.38 1014.38Z" fill="#596DA6" fill-opacity="0.2"></path>
<path d="M1068.82 983.944C1051.91 983.944 1038.38 997.47 1038.38 1014.38L1068.82 983.944Z" fill="#596DA6" fill-opacity="0.2"></path>
<path d="M1099.25 1014.38C1099.25 997.47 1085.73 983.944 1068.82 983.944L1099.25 1014.38Z" fill="#596DA6" fill-opacity="0.2"></path>
<path d="M987.332 1030.99H1028.11V1074.49H987.332V1030.99Z" fill="#596DA6" fill-opacity="0.2"></path>
<path d="M1069.42 983.944C1052.51 983.944 1038.99 997.47 1038.99 1014.38L1069.42 983.944Z" fill="#596DA6" fill-opacity="0.2"></path>
<path d="M1099.86 1014.38C1099.86 997.47 1086.33 983.944 1069.42 983.944L1099.86 1014.38Z" fill="#596DA6" fill-opacity="0.2"></path>
<path d="M1130.29 983.944C1113.38 983.944 1099.85 997.47 1099.85 1014.38L1130.29 983.944Z" fill="#596DA6" fill-opacity="0.2"></path>
<path d="M1160.72 1014.38C1160.72 997.47 1147.2 983.944 1130.29 983.944L1160.72 1014.38Z" fill="#596DA6" fill-opacity="0.2"></path>
<path d="M1191.16 983.944C1174.25 983.944 1160.72 997.47 1160.72 1014.38L1191.16 983.944Z" fill="#596DA6" fill-opacity="0.2"></path>
<path d="M1221.59 1014.38C1221.59 997.47 1208.07 983.944 1191.16 983.944L1221.59 1014.38Z" fill="#596DA6" fill-opacity="0.2"></path>
<path d="M1109.67 1030.99H1150.45V1074.49H1109.67V1030.99Z" fill="#596DA6" fill-opacity="0.2"></path>
<path d="M1191.21 983.991C1174.3 983.991 1160.77 997.517 1160.77 1014.43L1191.21 983.991Z" fill="#596DA6" fill-opacity="0.2"></path>
<path d="M1221.64 1014.43C1221.64 997.517 1208.11 983.991 1191.21 983.991L1221.64 1014.43Z" fill="#596DA6" fill-opacity="0.2"></path>
<path d="M947.102 983.943C930.194 983.943 916.668 997.47 916.668 1014.38L947.102 983.943Z" fill="#596DA6" fill-opacity="0.2"></path>
<path d="M977.537 1014.38C977.537 997.47 964.01 983.943 947.102 983.943L977.537 1014.38Z" fill="#596DA6" fill-opacity="0.2"></path>
<path d="M1007.97 983.943C991.063 983.943 977.537 997.47 977.537 1014.38L1007.97 983.943Z" fill="#596DA6" fill-opacity="0.2"></path>
<path d="M1038.41 1014.38C1038.41 997.47 1024.88 983.943 1007.97 983.943L1038.41 1014.38Z" fill="#596DA6" fill-opacity="0.2"></path>
<path d="M1068.84 983.943C1051.93 983.943 1038.41 997.47 1038.41 1014.38L1068.84 983.943Z" fill="#596DA6" fill-opacity="0.2"></path>
<path d="M1099.27 1014.38C1099.27 997.47 1085.75 983.943 1068.84 983.943L1099.27 1014.38Z" fill="#596DA6" fill-opacity="0.2"></path>
<path d="M987.354 1030.99H1028.13V1074.49H987.354V1030.99Z" fill="#596DA6" fill-opacity="0.2"></path>
<path d="M1069.45 983.944C1052.54 983.944 1039.02 997.47 1039.02 1014.38L1069.45 983.944Z" fill="#596DA6" fill-opacity="0.2"></path>
<path d="M1099.89 1014.38C1099.89 997.47 1086.36 983.944 1069.45 983.944L1099.89 1014.38Z" fill="#596DA6" fill-opacity="0.2"></path>
<path d="M1130.32 983.944C1113.41 983.944 1099.89 997.47 1099.89 1014.38L1130.32 983.944Z" fill="#596DA6" fill-opacity="0.2"></path>
<path d="M1160.75 1014.38C1160.75 997.47 1147.23 983.944 1130.32 983.944L1160.75 1014.38Z" fill="#596DA6" fill-opacity="0.2"></path>
<path d="M1191.19 983.944C1174.28 983.944 1160.75 997.47 1160.75 1014.38L1191.19 983.944Z" fill="#596DA6" fill-opacity="0.2"></path>
<path d="M1221.62 1014.38C1221.62 997.47 1208.1 983.944 1191.19 983.944L1221.62 1014.38Z" fill="#596DA6" fill-opacity="0.2"></path>
<path d="M1109.7 1030.99H1150.48V1074.49H1109.7V1030.99Z" fill="#596DA6" fill-opacity="0.2"></path>
<path d="M1067.19 693.773C1030.19 693.773 1000.08 723.9 1000.08 760.918C1000.08 816.362 1062.72 869.6 1065.39 871.84C1065.89 872.264 1066.52 872.499 1067.17 872.503C1067.83 872.507 1068.46 872.28 1068.97 871.862C1071.63 869.662 1134.29 817.34 1134.29 760.918C1134.29 723.9 1104.19 693.773 1067.19 693.773ZM1067.2 866.009C1056.9 856.822 1005.68 808.711 1005.68 760.918C1005.68 726.972 1033.27 699.358 1067.19 699.358C1101.1 699.358 1128.7 726.972 1128.7 760.918C1128.7 809.521 1077.52 856.944 1067.2 866.009Z" fill="#596DA6" fill-opacity="0.2"></path>
<path d="M1102.86 756.871C1102.86 776.571 1086.89 792.541 1067.19 792.541C1047.49 792.541 1031.52 776.571 1031.52 756.871C1031.52 737.171 1047.49 721.202 1067.19 721.202C1086.89 721.202 1102.86 737.171 1102.86 756.871Z" fill="#596DA6" fill-opacity="0.2"></path>
<path d="M1067.5 739.975C1064.73 737.422 1061.09 736.006 1057.32 736.005C1055.33 736.007 1053.35 736.404 1051.51 737.173C1049.67 737.942 1047.99 739.067 1046.59 740.484C1040.59 746.505 1040.6 755.922 1046.59 761.917L1065.27 780.598C1065.71 781.359 1066.54 781.851 1067.5 781.851C1067.9 781.847 1068.29 781.751 1068.64 781.57C1068.99 781.389 1069.29 781.128 1069.52 780.809L1088.41 761.917C1094.41 755.919 1094.41 746.505 1088.41 740.474C1087 739.06 1085.33 737.936 1083.49 737.169C1081.65 736.403 1079.68 736.007 1077.68 736.005C1073.91 736.006 1070.28 737.423 1067.5 739.975ZM1084.81 744.077C1088.79 748.08 1088.79 754.332 1084.81 758.314L1067.5 775.622L1050.2 758.314C1046.22 754.332 1046.22 748.08 1050.19 744.087C1052.13 742.161 1054.66 741.101 1057.32 741.101C1059.98 741.101 1062.51 742.161 1064.43 744.082L1065.7 745.356C1065.94 745.593 1066.22 745.781 1066.53 745.909C1066.84 746.037 1067.17 746.103 1067.5 746.103C1067.84 746.103 1068.17 746.037 1068.48 745.909C1068.79 745.781 1069.07 745.593 1069.3 745.356L1070.58 744.082C1074.43 740.237 1080.96 740.248 1084.81 744.077Z" fill="#596DA6" fill-opacity="0.2"></path>
</g>
<path fill-rule="evenodd" clip-rule="evenodd" d="M908.298 481.458C884.437 481.458 865.093 500.802 865.093 524.663V571.324C864.139 571.324 863.365 572.097 863.365 573.052V598.111C863.365 599.066 864.139 599.839 865.093 599.839V629.218C863.662 629.218 862.501 630.379 862.501 631.811V681.064C862.501 682.496 863.662 683.656 865.093 683.656V697.482C863.662 697.482 862.501 698.642 862.501 700.074V749.327C862.501 750.759 863.662 751.919 865.093 751.919V1183.1C865.093 1206.96 884.437 1226.31 908.298 1226.31H1189.13C1212.99 1226.31 1232.33 1206.96 1232.33 1183.1V733.773C1233.76 733.773 1234.92 732.613 1234.92 731.181V649.956C1234.92 648.525 1233.76 647.364 1232.33 647.364V524.663C1232.33 500.802 1212.99 481.458 1189.13 481.458H908.298Z" fill="white"></path>
<path d="M1186.53 485.78H910.89C887.983 485.78 869.413 504.349 869.413 527.256V1180.51C869.413 1203.42 887.983 1221.99 910.89 1221.99H1186.53C1209.44 1221.99 1228.01 1203.42 1228.01 1180.51V527.256C1228.01 504.349 1209.44 485.78 1186.53 485.78Z" fill="#E9EEF1"></path>
<path d="M1183.94 488.372H913.482C890.575 488.372 872.006 506.942 872.006 529.848V1177.92C872.006 1200.82 890.575 1219.39 913.482 1219.39H1183.94C1206.85 1219.39 1225.42 1200.82 1225.42 1177.92V529.848C1225.42 506.942 1206.85 488.372 1183.94 488.372Z" fill="white"></path>
<path d="M1183.08 503.062H914.346C899.075 503.062 886.695 515.442 886.695 530.713V1177.05C886.695 1192.33 899.075 1204.7 914.346 1204.7H1183.08C1198.35 1204.7 1210.73 1192.33 1210.73 1177.05V530.713C1210.73 515.442 1198.35 503.062 1183.08 503.062Z" fill="#A5B8EF"></path>
<path fill-rule="evenodd" clip-rule="evenodd" d="M959.279 503.062H952.366C956.514 503.062 959.279 504.358 959.279 508.247V513.431C959.279 522.021 966.243 528.985 974.833 528.985H1123.46C1132.05 528.985 1139.01 522.021 1139.01 513.431V508.247C1139.01 504.358 1141.78 503.062 1145.92 503.062H1139.01H959.279Z" fill="white"></path>
<path d="M1086.3 517.752C1089.64 517.752 1092.35 515.044 1092.35 511.703C1092.35 508.363 1089.64 505.655 1086.3 505.655C1082.96 505.655 1080.25 508.363 1080.25 511.703C1080.25 515.044 1082.96 517.752 1086.3 517.752Z" fill="#E9EEF1"></path>
<path d="M1086.3 515.159C1088.21 515.159 1089.76 513.611 1089.76 511.702C1089.76 509.794 1088.21 508.246 1086.3 508.246C1084.39 508.246 1082.84 509.794 1082.84 511.702C1082.84 513.611 1084.39 515.159 1086.3 515.159Z" fill="white"></path>
<path d="M1066.43 508.246H1031C1029.09 508.246 1027.54 509.794 1027.54 511.702C1027.54 513.611 1029.09 515.159 1031 515.159H1066.43C1068.33 515.159 1069.88 513.611 1069.88 511.702C1069.88 509.794 1068.33 508.246 1066.43 508.246Z" fill="#E9EEF1"></path>
<path d="M806.728 965.369C789.82 965.369 776.294 978.896 776.294 995.804" stroke="white" stroke-width="9.51959" stroke-miterlimit="10" stroke-linecap="round" stroke-linejoin="round"></path>
<path d="M837.163 995.804C837.163 978.896 823.637 965.369 806.729 965.369" stroke="white" stroke-width="9.51959" stroke-miterlimit="10" stroke-linecap="round" stroke-linejoin="round"></path>
<path d="M867.597 965.369C850.689 965.369 837.162 978.896 837.162 995.804" stroke="white" stroke-width="9.51959" stroke-miterlimit="10" stroke-linecap="round" stroke-linejoin="round"></path>
<path d="M898.031 995.804C898.031 978.896 884.505 965.369 867.597 965.369" stroke="white" stroke-width="9.51959" stroke-miterlimit="10" stroke-linecap="round" stroke-linejoin="round"></path>
<path d="M928.466 965.369C911.558 965.369 898.031 978.896 898.031 995.804" stroke="white" stroke-width="9.51959" stroke-miterlimit="10" stroke-linecap="round" stroke-linejoin="round"></path>
<path d="M958.899 995.804C958.899 978.896 945.373 965.369 928.465 965.369" stroke="white" stroke-width="9.51959" stroke-miterlimit="10" stroke-linecap="round" stroke-linejoin="round"></path>
<path d="M776.294 995.8H958.901" stroke="white" stroke-width="9.51959" stroke-miterlimit="10" stroke-linecap="round" stroke-linejoin="round"></path>
<path d="M806.729 995.8V1056.67" stroke="white" stroke-width="9.51959" stroke-miterlimit="10" stroke-linecap="round" stroke-linejoin="round"></path>
<path d="M928.465 995.8V1056.67" stroke="white" stroke-width="9.51959" stroke-miterlimit="10" stroke-linecap="round" stroke-linejoin="round"></path>
<path d="M806.729 1056.67H928.466" stroke="white" stroke-width="9.51959" stroke-miterlimit="10" stroke-linecap="round" stroke-linejoin="round"></path>
<path d="M806.2 964.84L819.794 934.935" stroke="white" stroke-width="9.51959" stroke-miterlimit="10" stroke-linecap="round" stroke-linejoin="round"></path>
<path d="M927.181 964.84L913.587 934.935" stroke="white" stroke-width="9.51959" stroke-miterlimit="10" stroke-linecap="round" stroke-linejoin="round"></path>
<path d="M819.794 934.935L913.589 934.935" stroke="white" stroke-width="9.51959" stroke-miterlimit="10" stroke-linecap="round" stroke-linejoin="round"></path>
<rect x="846.98" y="1012.42" width="40.7803" height="43.499" stroke="white" stroke-width="9.51959" stroke-linecap="round" stroke-linejoin="round"></rect>
<path d="M928.461 965.321C911.553 965.321 898.026 978.848 898.026 995.756" stroke="white" stroke-width="9.51959" stroke-miterlimit="10" stroke-linecap="round" stroke-linejoin="round"></path>
<path d="M958.895 995.756C958.895 978.848 945.369 965.321 928.461 965.321" stroke="white" stroke-width="9.51959" stroke-miterlimit="10" stroke-linecap="round" stroke-linejoin="round"></path>
<path d="M989.329 965.321C972.421 965.321 958.895 978.848 958.895 995.756" stroke="white" stroke-width="9.51959" stroke-miterlimit="10" stroke-linecap="round" stroke-linejoin="round"></path>
<path d="M1019.76 995.756C1019.76 978.848 1006.24 965.321 989.329 965.321" stroke="white" stroke-width="9.51959" stroke-miterlimit="10" stroke-linecap="round" stroke-linejoin="round"></path>
<path d="M1050.2 965.321C1033.29 965.321 1019.76 978.848 1019.76 995.756" stroke="white" stroke-width="9.51959" stroke-miterlimit="10" stroke-linecap="round" stroke-linejoin="round"></path>
<path d="M1080.63 995.756C1080.63 978.848 1067.11 965.321 1050.2 965.321" stroke="white" stroke-width="9.51959" stroke-miterlimit="10" stroke-linecap="round" stroke-linejoin="round"></path>
<path d="M898.026 995.753H1080.63" stroke="white" stroke-width="9.51959" stroke-miterlimit="10" stroke-linecap="round" stroke-linejoin="round"></path>
<path d="M928.461 995.753V1056.62" stroke="white" stroke-width="9.51959" stroke-miterlimit="10" stroke-linecap="round" stroke-linejoin="round"></path>
<path d="M1050.2 995.753V1056.62" stroke="white" stroke-width="9.51959" stroke-miterlimit="10" stroke-linecap="round" stroke-linejoin="round"></path>
<path d="M928.461 1056.62H1050.2" stroke="white" stroke-width="9.51959" stroke-miterlimit="10" stroke-linecap="round" stroke-linejoin="round"></path>
<path d="M927.932 964.792L941.525 934.887" stroke="white" stroke-width="9.51959" stroke-miterlimit="10" stroke-linecap="round" stroke-linejoin="round"></path>
<path d="M1048.91 964.792L1035.32 934.887" stroke="white" stroke-width="9.51959" stroke-miterlimit="10" stroke-linecap="round" stroke-linejoin="round"></path>
<path d="M941.526 934.887L1035.32 934.887" stroke="white" stroke-width="9.51959" stroke-miterlimit="10" stroke-linecap="round" stroke-linejoin="round"></path>
<rect x="968.712" y="1012.37" width="40.7803" height="43.499" stroke="white" stroke-width="9.51959" stroke-linecap="round" stroke-linejoin="round"></rect>
<path d="M1050.8 965.321C1033.89 965.321 1020.37 978.848 1020.37 995.756" stroke="white" stroke-width="9.51959" stroke-miterlimit="10" stroke-linecap="round" stroke-linejoin="round"></path>
<path d="M1081.23 995.756C1081.23 978.848 1067.71 965.321 1050.8 965.321" stroke="white" stroke-width="9.51959" stroke-miterlimit="10" stroke-linecap="round" stroke-linejoin="round"></path>
<path d="M1111.67 965.321C1094.76 965.321 1081.23 978.848 1081.23 995.756" stroke="white" stroke-width="9.51959" stroke-miterlimit="10" stroke-linecap="round" stroke-linejoin="round"></path>
<path d="M1142.1 995.756C1142.1 978.848 1128.58 965.321 1111.67 965.321" stroke="white" stroke-width="9.51959" stroke-miterlimit="10" stroke-linecap="round" stroke-linejoin="round"></path>
<path d="M1172.54 965.321C1155.63 965.321 1142.1 978.848 1142.1 995.756" stroke="white" stroke-width="9.51959" stroke-miterlimit="10" stroke-linecap="round" stroke-linejoin="round"></path>
<path d="M1202.97 995.756C1202.97 978.848 1189.44 965.321 1172.54 965.321" stroke="white" stroke-width="9.51959" stroke-miterlimit="10" stroke-linecap="round" stroke-linejoin="round"></path>
<path d="M1020.37 995.753H1202.97" stroke="white" stroke-width="9.51959" stroke-miterlimit="10" stroke-linecap="round" stroke-linejoin="round"></path>
<path d="M1050.8 995.753V1056.62" stroke="white" stroke-width="9.51959" stroke-miterlimit="10" stroke-linecap="round" stroke-linejoin="round"></path>
<path d="M1172.54 995.753V1056.62" stroke="white" stroke-width="9.51959" stroke-miterlimit="10" stroke-linecap="round" stroke-linejoin="round"></path>
<path d="M1050.8 1056.62H1172.54" stroke="white" stroke-width="9.51959" stroke-miterlimit="10" stroke-linecap="round" stroke-linejoin="round"></path>
<path d="M1050.27 964.792L1063.86 934.887" stroke="white" stroke-width="9.51959" stroke-miterlimit="10" stroke-linecap="round" stroke-linejoin="round"></path>
<path d="M1171.25 964.792L1157.66 934.887" stroke="white" stroke-width="9.51959" stroke-miterlimit="10" stroke-linecap="round" stroke-linejoin="round"></path>
<path d="M1063.87 934.887L1157.66 934.887" stroke="white" stroke-width="9.51959" stroke-miterlimit="10" stroke-linecap="round" stroke-linejoin="round"></path>
<rect x="1091.05" y="1012.37" width="40.7803" height="43.499" stroke="white" stroke-width="9.51959" stroke-linecap="round" stroke-linejoin="round"></rect>
<path d="M1172.58 965.371C1155.68 965.371 1142.15 978.897 1142.15 995.805" stroke="white" stroke-width="9.51959" stroke-miterlimit="10" stroke-linecap="round" stroke-linejoin="round"></path>
<path d="M1203.02 995.805C1203.02 978.897 1189.49 965.371 1172.58 965.371" stroke="white" stroke-width="9.51959" stroke-miterlimit="10" stroke-linecap="round" stroke-linejoin="round"></path>
<path d="M1233.45 965.371C1216.54 965.371 1203.02 978.897 1203.02 995.805" stroke="white" stroke-width="9.51959" stroke-miterlimit="10" stroke-linecap="round" stroke-linejoin="round"></path>
<path d="M1263.89 995.805C1263.89 978.897 1250.36 965.371 1233.45 965.371" stroke="white" stroke-width="9.51959" stroke-miterlimit="10" stroke-linecap="round" stroke-linejoin="round"></path>
<path d="M1294.32 965.371C1277.42 965.371 1263.89 978.897 1263.89 995.805" stroke="white" stroke-width="9.51959" stroke-miterlimit="10" stroke-linecap="round" stroke-linejoin="round"></path>
<path d="M1324.76 995.805C1324.76 978.897 1311.23 965.371 1294.32 965.371" stroke="white" stroke-width="9.51959" stroke-miterlimit="10" stroke-linecap="round" stroke-linejoin="round"></path>
<path d="M1142.15 995.801H1324.76" stroke="white" stroke-width="9.51959" stroke-miterlimit="10" stroke-linecap="round" stroke-linejoin="round"></path>
<path d="M1172.58 995.801V1056.67" stroke="white" stroke-width="9.51959" stroke-miterlimit="10" stroke-linecap="round" stroke-linejoin="round"></path>
<path d="M1294.32 995.801V1056.67" stroke="white" stroke-width="9.51959" stroke-miterlimit="10" stroke-linecap="round" stroke-linejoin="round"></path>
<path d="M1172.58 1056.67H1294.32" stroke="white" stroke-width="9.51959" stroke-miterlimit="10" stroke-linecap="round" stroke-linejoin="round"></path>
<path d="M1172.06 964.84L1185.65 934.934" stroke="white" stroke-width="9.51959" stroke-miterlimit="10" stroke-linecap="round" stroke-linejoin="round"></path>
<path d="M1293.04 964.84L1279.44 934.934" stroke="white" stroke-width="9.51959" stroke-miterlimit="10" stroke-linecap="round" stroke-linejoin="round"></path>
<path d="M1185.65 934.934L1279.45 934.934" stroke="white" stroke-width="9.51959" stroke-miterlimit="10" stroke-linecap="round" stroke-linejoin="round"></path>
<rect x="1212.84" y="1012.42" width="40.7803" height="43.499" stroke="white" stroke-width="9.51959" stroke-linecap="round" stroke-linejoin="round"></rect>
<path d="M928.483 965.323C911.575 965.323 898.049 978.849 898.049 995.757" stroke="#D35C4A" stroke-width="9.51959" stroke-miterlimit="10" stroke-linecap="round" stroke-linejoin="round"></path>
<path d="M958.918 995.757C958.918 978.849 945.391 965.323 928.483 965.323" stroke="#D35C4A" stroke-width="9.51959" stroke-miterlimit="10" stroke-linecap="round" stroke-linejoin="round"></path>
<path d="M989.351 965.323C972.443 965.323 958.917 978.849 958.917 995.757" stroke="#D35C4A" stroke-width="9.51959" stroke-miterlimit="10" stroke-linecap="round" stroke-linejoin="round"></path>
<path d="M1019.79 995.757C1019.79 978.849 1006.26 965.323 989.352 965.323" stroke="#D35C4A" stroke-width="9.51959" stroke-miterlimit="10" stroke-linecap="round" stroke-linejoin="round"></path>
<path d="M1050.22 965.323C1033.31 965.323 1019.79 978.849 1019.79 995.757" stroke="#D35C4A" stroke-width="9.51959" stroke-miterlimit="10" stroke-linecap="round" stroke-linejoin="round"></path>
<path d="M1080.65 995.757C1080.65 978.849 1067.13 965.323 1050.22 965.323" stroke="#D35C4A" stroke-width="9.51959" stroke-miterlimit="10" stroke-linecap="round" stroke-linejoin="round"></path>
<path d="M898.049 995.753H1080.66" stroke="#D35C4A" stroke-width="9.51959" stroke-miterlimit="10" stroke-linecap="round" stroke-linejoin="round"></path>
<path d="M928.483 995.753V1056.62" stroke="#D35C4A" stroke-width="9.51959" stroke-miterlimit="10" stroke-linecap="round" stroke-linejoin="round"></path>
<path d="M1050.22 995.753V1056.62" stroke="#D35C4A" stroke-width="9.51959" stroke-miterlimit="10" stroke-linecap="round" stroke-linejoin="round"></path>
<path d="M928.483 1056.62H1050.22" stroke="#D35C4A" stroke-width="9.51959" stroke-miterlimit="10" stroke-linecap="round" stroke-linejoin="round"></path>
<path d="M927.954 964.792L941.548 934.887" stroke="#D35C4A" stroke-width="9.51959" stroke-miterlimit="10" stroke-linecap="round" stroke-linejoin="round"></path>
<path d="M1048.94 964.792L1035.34 934.887" stroke="#D35C4A" stroke-width="9.51959" stroke-miterlimit="10" stroke-linecap="round" stroke-linejoin="round"></path>
<path d="M941.549 934.887L1035.34 934.887" stroke="#D35C4A" stroke-width="9.51959" stroke-miterlimit="10" stroke-linecap="round" stroke-linejoin="round"></path>
<rect x="968.735" y="1012.37" width="40.7803" height="43.499" stroke="#D35C4A" stroke-width="9.51959" stroke-linecap="round" stroke-linejoin="round"></rect>
<path d="M1050.83 965.323C1033.92 965.323 1020.4 978.85 1020.4 995.758" stroke="#D35C4A" stroke-width="9.51959" stroke-miterlimit="10" stroke-linecap="round" stroke-linejoin="round"></path>
<path d="M1081.26 995.758C1081.26 978.85 1067.74 965.323 1050.83 965.323" stroke="#D35C4A" stroke-width="9.51959" stroke-miterlimit="10" stroke-linecap="round" stroke-linejoin="round"></path>
<path d="M1111.7 965.323C1094.79 965.323 1081.26 978.85 1081.26 995.758" stroke="#D35C4A" stroke-width="9.51959" stroke-miterlimit="10" stroke-linecap="round" stroke-linejoin="round"></path>
<path d="M1142.13 995.758C1142.13 978.85 1128.61 965.323 1111.7 965.323" stroke="#D35C4A" stroke-width="9.51959" stroke-miterlimit="10" stroke-linecap="round" stroke-linejoin="round"></path>
<path d="M1172.57 965.323C1155.66 965.323 1142.13 978.85 1142.13 995.758" stroke="#D35C4A" stroke-width="9.51959" stroke-miterlimit="10" stroke-linecap="round" stroke-linejoin="round"></path>
<path d="M1203 995.758C1203 978.85 1189.48 965.323 1172.57 965.323" stroke="#D35C4A" stroke-width="9.51959" stroke-miterlimit="10" stroke-linecap="round" stroke-linejoin="round"></path>
<path d="M1020.4 995.753H1203" stroke="#D35C4A" stroke-width="9.51959" stroke-miterlimit="10" stroke-linecap="round" stroke-linejoin="round"></path>
<path d="M1050.83 995.753V1056.62" stroke="#D35C4A" stroke-width="9.51959" stroke-miterlimit="10" stroke-linecap="round" stroke-linejoin="round"></path>
<path d="M1172.57 995.753V1056.62" stroke="#D35C4A" stroke-width="9.51959" stroke-miterlimit="10" stroke-linecap="round" stroke-linejoin="round"></path>
<path d="M1050.83 1056.62H1172.57" stroke="#D35C4A" stroke-width="9.51959" stroke-miterlimit="10" stroke-linecap="round" stroke-linejoin="round"></path>
<path d="M1050.3 964.792L1063.9 934.887" stroke="#D35C4A" stroke-width="9.51959" stroke-miterlimit="10" stroke-linecap="round" stroke-linejoin="round"></path>
<path d="M1171.28 964.792L1157.69 934.887" stroke="#D35C4A" stroke-width="9.51959" stroke-miterlimit="10" stroke-linecap="round" stroke-linejoin="round"></path>
<path d="M1063.9 934.887L1157.69 934.887" stroke="#D35C4A" stroke-width="9.51959" stroke-miterlimit="10" stroke-linecap="round" stroke-linejoin="round"></path>
<rect x="1091.08" y="1012.37" width="40.7803" height="43.499" stroke="#D35C4A" stroke-width="9.51959" stroke-linecap="round" stroke-linejoin="round"></rect>
<path d="M1048.57 675.152C1011.57 675.152 981.464 705.279 981.464 742.297C981.464 797.742 1044.1 850.98 1046.77 853.219C1047.27 853.643 1047.9 853.878 1048.55 853.882C1049.21 853.887 1049.84 853.66 1050.35 853.242C1053.01 851.041 1115.67 798.719 1115.67 742.297C1115.67 705.279 1085.57 675.152 1048.57 675.152ZM1048.58 847.388C1038.28 838.201 987.056 790.09 987.056 742.297C987.056 708.351 1014.65 680.738 1048.57 680.738C1082.48 680.738 1110.08 708.351 1110.08 742.297C1110.08 790.9 1058.9 838.324 1048.58 847.388Z" fill="white" stroke="#D35C4A" stroke-width="7.5717"></path>
<circle cx="1048.57" cy="738.251" r="35.6696" fill="#D35C4A"></circle>
<path d="M1048.88 721.354C1046.11 718.802 1042.47 717.385 1038.7 717.385C1036.71 717.387 1034.73 717.784 1032.89 718.552C1031.04 719.321 1029.37 720.446 1027.97 721.864C1021.97 727.884 1021.97 737.301 1027.97 743.296L1046.65 761.977C1047.09 762.739 1047.92 763.23 1048.88 763.23C1049.28 763.227 1049.66 763.13 1050.02 762.949C1050.37 762.768 1050.67 762.508 1050.9 762.188L1060.35 752.742L1069.79 743.296C1075.79 737.299 1075.79 727.884 1069.79 721.854C1068.38 720.439 1066.71 719.316 1064.87 718.549C1063.03 717.782 1061.06 717.386 1059.06 717.385C1055.29 717.385 1051.66 718.802 1048.88 721.354ZM1066.18 725.456C1070.17 729.459 1070.17 735.711 1066.19 739.694L1048.88 757.001L1031.58 739.694C1027.6 735.711 1027.6 729.459 1031.57 725.466C1033.51 723.54 1036.04 722.48 1038.7 722.48C1041.36 722.48 1043.89 723.54 1045.81 725.461L1047.08 726.735C1047.32 726.972 1047.6 727.16 1047.91 727.288C1048.22 727.416 1048.55 727.482 1048.88 727.482C1049.22 727.482 1049.55 727.416 1049.86 727.288C1050.17 727.16 1050.45 726.972 1050.68 726.735L1051.96 725.461C1055.81 721.617 1062.34 721.627 1066.18 725.456Z" fill="white"></path>
<g filter="url(#filter1_f_807_653)">
<path fill-rule="evenodd" clip-rule="evenodd" d="M608.231 60C584.222 60 564.76 79.4239 564.76 103.385V150.24C563.799 150.24 563.021 151.017 563.021 151.975V177.139C563.021 178.097 563.799 178.874 564.76 178.874V208.375C563.319 208.375 562.151 209.541 562.151 210.979V260.437C562.151 261.875 563.319 263.04 564.76 263.04V276.923C563.319 276.923 562.151 278.088 562.151 279.526V328.985C562.151 330.423 563.319 331.588 564.76 331.588V764.566C564.76 788.527 584.222 807.951 608.231 807.951H890.793C914.801 807.951 934.264 788.527 934.264 764.566V313.366C935.704 313.366 936.872 312.201 936.872 310.763V229.2C936.872 227.762 935.704 226.597 934.264 226.597V103.385C934.264 79.424 914.801 60 890.793 60H608.231Z" fill="#596DA6" fill-opacity="0.2"></path>
<path d="M888.185 64.3384H610.84C587.792 64.3384 569.107 82.9854 569.107 105.988V761.963C569.107 784.965 587.792 803.612 610.84 803.612H888.185C911.233 803.612 929.917 784.965 929.917 761.963V105.988C929.917 82.9854 911.233 64.3384 888.185 64.3384Z" fill="#596DA6" fill-opacity="0.2"></path>
<path d="M885.577 66.9409H613.448C590.4 66.9409 571.716 85.5879 571.716 108.59V759.36C571.716 782.362 590.4 801.009 613.448 801.009H885.577C908.625 801.009 927.309 782.362 927.309 759.36V108.59C927.309 85.5879 908.625 66.9409 885.577 66.9409Z" fill="#596DA6" fill-opacity="0.2"></path>
<path d="M884.707 81.6919H614.317C598.951 81.6919 586.495 94.1232 586.495 109.458V758.492C586.495 773.827 598.951 786.258 614.317 786.258H884.707C900.072 786.258 912.528 773.827 912.528 758.492V109.458C912.528 94.1232 900.072 81.6919 884.707 81.6919Z" fill="#596DA6" fill-opacity="0.2"></path>
<path fill-rule="evenodd" clip-rule="evenodd" d="M659.528 81.6919H652.572C656.745 81.6919 659.528 82.9934 659.528 86.898V92.1042C659.528 100.73 666.534 107.723 675.177 107.723H824.718C833.361 107.723 840.367 100.73 840.367 92.1042V86.898C840.367 82.9934 843.149 81.6919 847.323 81.6919H840.367H659.528Z" fill="#596DA6" fill-opacity="0.2"></path>
<path d="M787.33 96.4421C790.691 96.4421 793.416 93.7228 793.416 90.3683C793.416 87.0138 790.691 84.2944 787.33 84.2944C783.969 84.2944 781.244 87.0138 781.244 90.3683C781.244 93.7228 783.969 96.4421 787.33 96.4421Z" fill="#596DA6" fill-opacity="0.2"></path>
<path d="M787.332 93.8405C789.253 93.8405 790.81 92.2866 790.81 90.3697C790.81 88.4528 789.253 86.8989 787.332 86.8989C785.412 86.8989 783.854 88.4528 783.854 90.3697C783.854 92.2866 785.412 93.8405 787.332 93.8405Z" fill="#596DA6" fill-opacity="0.2"></path>
<path d="M767.336 86.8989H731.69C729.769 86.8989 728.212 88.4528 728.212 90.3697C728.212 92.2866 729.769 93.8405 731.69 93.8405H767.336C769.257 93.8405 770.814 92.2866 770.814 90.3697C770.814 88.4528 769.257 86.8989 767.336 86.8989Z" fill="#596DA6" fill-opacity="0.2"></path>
<path fill-rule="evenodd" clip-rule="evenodd" d="M883.632 404.322L740.991 581.463C731.668 593.041 733.454 610.036 744.981 619.423C756.507 628.81 773.409 627.033 782.733 615.455L857.323 522.824L885.714 545.945L852.971 586.61C844.13 597.589 845.824 613.706 856.754 622.607C867.684 631.509 883.712 629.824 892.552 618.845L939.859 560.093C940.518 559.275 941.118 558.428 941.661 557.558L941.717 557.488C950.866 546.125 949.113 529.446 937.801 520.234L890.457 481.676L925.373 438.316L953.162 460.947C954.16 461.76 955.199 462.485 956.272 463.125C966.641 470.323 980.929 468.388 988.981 458.388L1014.84 426.269C1023.3 415.773 1021.68 400.365 1011.23 391.855C1000.78 383.344 985.454 384.955 977.002 395.452L968.182 406.405L952.532 393.659C969.304 391.612 982.301 377.181 982.301 359.682C982.301 340.78 967.135 325.457 948.426 325.457C929.717 325.457 914.55 340.78 914.55 359.682C914.55 360.748 914.599 361.802 914.693 362.843L889.467 342.299C881.316 335.661 870.371 334.827 861.582 339.276C858.365 340.756 855.43 342.988 853.053 345.94L828.311 376.668C820.073 386.899 821.651 401.916 831.836 410.211C842.021 418.505 856.956 416.936 865.193 406.705L873.655 396.197L883.632 404.322Z" fill="#596DA6" fill-opacity="0.2"></path>
<path fill-rule="evenodd" clip-rule="evenodd" d="M971.267 359.776C971.267 372.275 961.192 382.408 948.763 382.408C936.334 382.408 926.259 372.275 926.259 359.776C926.259 347.276 936.334 337.144 948.763 337.144C961.192 337.144 971.267 347.276 971.267 359.776ZM752.938 609.525C746.499 604.281 745.501 594.787 750.709 588.319L899.714 403.275L872.754 381.319L856.967 400.925C852.204 406.841 843.568 407.748 837.679 402.952C831.789 398.156 830.877 389.472 835.64 383.556L861.597 351.32C866.209 345.591 874.453 344.559 880.318 348.855C880.94 349.226 881.543 349.647 882.121 350.118L970.048 421.725L985.873 402.071C990.636 396.155 999.272 395.248 1005.16 400.044C1011.05 404.84 1011.96 413.524 1007.2 419.44L981.243 451.676C976.853 457.129 969.172 458.327 963.385 454.725C962.488 454.259 961.625 453.695 960.809 453.031L923.032 422.265L874.03 483.119L930.649 529.23C932.131 530.436 933.325 531.868 934.222 533.436C937.802 538.788 937.678 546.065 933.435 551.334L884.638 611.936C879.43 618.405 869.988 619.397 863.549 614.153C857.11 608.909 856.112 599.414 861.32 592.946L900.88 543.815L855.147 506.57L774.028 607.309C768.82 613.777 759.377 614.769 752.938 609.525Z" fill="#596DA6" fill-opacity="0.2"></path>
<rect x="650.239" y="439.934" width="170.835" height="19.2288" rx="9.6144" fill="#596DA6" fill-opacity="0.2"></rect>
<rect x="650.239" y="471.981" width="142.577" height="19.2288" rx="9.6144" fill="#596DA6" fill-opacity="0.2"></rect>
<rect x="650.239" y="504.03" width="116.887" height="19.2288" rx="9.6144" fill="#596DA6" fill-opacity="0.2"></rect>
</g>
<path fill-rule="evenodd" clip-rule="evenodd" d="M592.431 44.481C568.569 44.481 549.226 63.8243 549.226 87.6856V134.347C548.272 134.347 547.498 135.12 547.498 136.075V161.133C547.498 162.088 548.272 162.862 549.226 162.862V192.241C547.794 192.241 546.634 193.401 546.634 194.833V244.086C546.634 245.518 547.794 246.679 549.226 246.679V260.504C547.794 260.504 546.634 261.665 546.634 263.096V312.35C546.634 313.781 547.794 314.942 549.226 314.942V746.124C549.226 769.985 568.569 789.329 592.431 789.329H873.261C897.122 789.329 916.465 769.985 916.465 746.124V296.796C917.897 296.796 919.058 295.635 919.058 294.204V212.979C919.058 211.547 917.897 210.387 916.465 210.387V87.6856C916.465 63.8244 897.122 44.481 873.261 44.481H592.431Z" fill="white"></path>
<path d="M870.669 48.8008H595.023C572.117 48.8008 553.547 67.3704 553.547 90.2772V743.531C553.547 766.438 572.117 785.007 595.023 785.007H870.669C893.576 785.007 912.145 766.438 912.145 743.531V90.2772C912.145 67.3704 893.576 48.8008 870.669 48.8008Z" fill="#E9EEF1"></path>
<path d="M868.076 51.3931H597.615C574.708 51.3931 556.139 69.9627 556.139 92.8695V740.939C556.139 763.845 574.708 782.415 597.615 782.415H868.076C890.983 782.415 909.552 763.845 909.552 740.939V92.8695C909.552 69.9627 890.983 51.3931 868.076 51.3931Z" fill="white"></path>
<path d="M867.224 66.2051H598.492C583.221 66.2051 570.841 78.5848 570.841 93.856V740.197C570.841 755.468 583.221 767.848 598.492 767.848H867.224C882.496 767.848 894.875 755.468 894.875 740.197V93.856C894.875 78.5848 882.496 66.2051 867.224 66.2051Z" fill="url(#pattern0_807_653)"></path>
<path fill-rule="evenodd" clip-rule="evenodd" d="M643.414 66.083H636.501C640.649 66.083 643.414 67.3791 643.414 71.2676V76.4521C643.414 85.0421 650.377 92.0058 658.967 92.0058H807.591C816.181 92.0058 823.145 85.0421 823.145 76.4521V71.2676C823.145 67.3791 825.91 66.083 830.058 66.083H823.145H643.414Z" fill="white"></path>
<path d="M770.433 80.7736C773.774 80.7736 776.482 78.0655 776.482 74.7249C776.482 71.3843 773.774 68.6763 770.433 68.6763C767.093 68.6763 764.385 71.3843 764.385 74.7249C764.385 78.0655 767.093 80.7736 770.433 80.7736Z" fill="#E9EEF1"></path>
<path d="M770.433 78.1808C772.342 78.1808 773.889 76.6333 773.889 74.7244C773.889 72.8155 772.342 71.2681 770.433 71.2681C768.524 71.2681 766.977 72.8155 766.977 74.7244C766.977 76.6333 768.524 78.1808 770.433 78.1808Z" fill="white"></path>
<path d="M750.56 71.2681H715.132C713.223 71.2681 711.676 72.8155 711.676 74.7244C711.676 76.6333 713.223 78.1808 715.132 78.1808H750.56C752.469 78.1808 754.016 76.6333 754.016 74.7244C754.016 72.8155 752.469 71.2681 750.56 71.2681Z" fill="#E9EEF1"></path>
<path fill-rule="evenodd" clip-rule="evenodd" d="M866.142 387.374L724.369 563.788C715.107 575.314 716.885 592.235 728.341 601.582C739.797 610.93 756.593 609.165 765.855 597.64L839.995 505.384L868.212 528.409L835.664 568.913C826.881 579.842 828.568 595.888 839.431 604.752C850.294 613.617 866.22 611.943 875.002 601.014L922.032 542.489C922.683 541.679 923.277 540.841 923.813 539.98L923.873 539.905C932.967 528.59 931.221 511.976 919.973 502.799L872.926 464.407L907.627 421.227L935.237 443.757C936.23 444.567 937.264 445.29 938.331 445.928C948.637 453.103 962.84 451.181 970.842 441.224L996.558 409.223C1004.95 398.774 1003.34 383.433 992.956 374.959C982.571 366.484 967.345 368.084 958.948 378.533L950.176 389.449L934.619 376.755C951.29 374.717 964.209 360.345 964.209 342.919C964.209 324.095 949.135 308.835 930.541 308.835C911.947 308.835 896.873 324.095 896.873 342.919C896.873 343.981 896.921 345.032 897.015 346.069L871.949 325.615C863.864 319.017 853.015 318.172 844.289 322.566C841.07 324.04 838.134 326.27 835.758 329.226L811.155 359.842C802.971 370.026 804.543 384.978 814.665 393.238C824.788 401.498 839.628 399.938 847.812 389.754L856.227 379.283L866.142 387.374Z" fill="white"></path>
<path fill-rule="evenodd" clip-rule="evenodd" d="M953.243 343.013C953.243 355.461 943.23 365.551 930.877 365.551C918.525 365.551 908.511 355.461 908.511 343.013C908.511 330.566 918.525 320.475 930.877 320.475C943.23 320.475 953.243 330.566 953.243 343.013ZM736.251 591.727C729.851 586.505 728.858 577.052 734.032 570.613L882.128 386.332L855.333 364.467L839.639 383.996C834.907 389.885 826.326 390.787 820.472 386.011C814.619 381.235 813.711 372.589 818.443 366.7L844.247 334.589C848.831 328.885 857.025 327.859 862.854 332.141C863.473 332.511 864.072 332.93 864.647 333.399L952.032 404.707L967.764 385.129C972.497 379.24 981.078 378.339 986.931 383.115C992.784 387.891 993.693 396.537 988.961 402.426L963.156 434.537C958.793 439.967 951.157 441.157 945.405 437.565C944.513 437.101 943.654 436.539 942.843 435.877L905.303 405.244L856.602 465.845L912.87 511.76C914.335 512.956 915.517 514.373 916.407 515.924C919.986 521.256 919.871 528.518 915.648 533.772L867.143 594.133C861.968 600.572 852.586 601.558 846.186 596.336C839.787 591.113 838.793 581.66 843.967 575.221L883.288 526.29L837.834 489.198L757.208 589.524C752.034 595.963 742.651 596.949 736.251 591.727Z" fill="#4C73E0"></path>
<rect x="634.18" y="422.838" width="169.788" height="19.149" rx="9.5745" fill="url(#paint0_linear_807_653)"></rect>
<rect x="634.18" y="454.752" width="141.703" height="19.149" rx="9.5745" fill="url(#paint1_linear_807_653)"></rect>
<rect x="634.18" y="486.667" width="116.171" height="19.149" rx="9.5745" fill="url(#paint2_linear_807_653)"></rect>
<mask id="path-123-inside-1_807_653" fill="white">
<path fill-rule="evenodd" clip-rule="evenodd" d="M988.222 414.838L1001.59 397.723C1001.59 397.723 1001.59 397.723 1001.59 397.723C996.866 394.03 990.042 394.868 986.349 399.594C982.657 404.32 983.495 411.145 988.221 414.837C988.221 414.837 988.221 414.838 988.222 414.838ZM986.885 416.549C986.884 416.549 986.884 416.549 986.884 416.549C981.212 412.118 980.207 403.928 984.638 398.257C989.069 392.586 997.258 391.58 1002.93 396.011C1002.93 396.011 1002.93 396.012 1002.93 396.012L1008.95 388.313C1009.31 387.84 1010 387.756 1010.47 388.126L1048.98 418.209C1049.45 418.579 1049.53 419.263 1049.16 419.736L1021.09 455.674C1020.72 456.148 1020.03 456.232 1019.56 455.862L981.055 425.778C980.581 425.408 980.497 424.725 980.867 424.251L986.885 416.549Z"></path>
</mask>
<path fill-rule="evenodd" clip-rule="evenodd" d="M988.222 414.838L1001.59 397.723C1001.59 397.723 1001.59 397.723 1001.59 397.723C996.866 394.03 990.042 394.868 986.349 399.594C982.657 404.32 983.495 411.145 988.221 414.837C988.221 414.837 988.221 414.838 988.222 414.838ZM986.885 416.549C986.884 416.549 986.884 416.549 986.884 416.549C981.212 412.118 980.207 403.928 984.638 398.257C989.069 392.586 997.258 391.58 1002.93 396.011C1002.93 396.011 1002.93 396.012 1002.93 396.012L1008.95 388.313C1009.31 387.84 1010 387.756 1010.47 388.126L1048.98 418.209C1049.45 418.579 1049.53 419.263 1049.16 419.736L1021.09 455.674C1020.72 456.148 1020.03 456.232 1019.56 455.862L981.055 425.778C980.581 425.408 980.497 424.725 980.867 424.251L986.885 416.549Z" fill="#4C73E0"></path>
<path d="M988.222 414.838L986.885 416.549L988.596 417.887L989.933 416.175L988.222 414.838ZM1001.59 397.723L1003.3 399.06L1004.64 397.349L1002.93 396.012L1001.59 397.723ZM986.885 416.549L988.596 417.887L989.933 416.175L988.222 414.838L986.885 416.549ZM1002.93 396.012L1001.59 397.723L1003.3 399.06L1004.64 397.349L1002.93 396.012ZM1010.47 388.126L1011.81 386.414L1010.47 388.126ZM1048.98 418.209L1047.64 419.921L1048.98 418.209ZM1049.16 419.736L1047.45 418.399L1049.16 419.736ZM1021.09 455.674L1022.8 457.012L1021.09 455.674ZM980.867 424.251L982.579 425.589L980.867 424.251ZM989.933 416.175L1003.3 399.06L999.882 396.386L986.51 413.501L989.933 416.175ZM1002.93 396.012C1002.93 396.012 1002.93 396.012 1002.93 396.011C1002.93 396.011 1002.93 396.011 1002.93 396.011L1000.26 399.434C1000.26 399.434 1000.26 399.434 1000.26 399.434C1000.26 399.434 1000.26 399.435 1000.26 399.435L1002.93 396.012ZM1002.93 396.011C997.258 391.58 989.069 392.586 984.638 398.257L988.061 400.931C991.015 397.15 996.474 396.48 1000.26 399.434L1002.93 396.011ZM984.638 398.257C980.207 403.928 981.212 412.118 986.884 416.549L989.558 413.126C985.777 410.172 985.107 404.712 988.061 400.931L984.638 398.257ZM986.884 416.549C986.884 416.549 986.884 416.549 986.884 416.549C986.884 416.549 986.884 416.549 986.885 416.549L989.559 413.126C989.559 413.126 989.559 413.126 989.558 413.126C989.558 413.126 989.558 413.126 989.558 413.126L986.884 416.549ZM985.547 418.26C985.547 418.26 985.547 418.26 985.547 418.261C985.547 418.261 985.547 418.261 985.547 418.261L988.222 414.838C988.222 414.838 988.221 414.838 988.221 414.838C988.221 414.837 988.221 414.837 988.221 414.837L985.547 418.26ZM982.926 396.92C977.757 403.536 978.93 413.091 985.547 418.26L988.221 414.837C983.495 411.145 982.657 404.32 986.349 399.594L982.926 396.92ZM1004.27 394.3C997.65 389.13 988.096 390.303 982.926 396.92L986.349 399.594C990.042 394.868 996.866 394.03 1001.59 397.723L1004.27 394.3ZM1004.27 394.3C1004.27 394.3 1004.27 394.3 1004.27 394.3C1004.27 394.3 1004.27 394.3 1004.27 394.3L1001.59 397.723C1001.59 397.723 1001.59 397.723 1001.59 397.723C1001.59 397.723 1001.59 397.723 1001.59 397.723L1004.27 394.3ZM1004.64 397.349L1010.66 389.65L1007.23 386.976L1001.22 394.675L1004.64 397.349ZM1010.66 389.65C1010.29 390.122 1009.61 390.206 1009.13 389.837L1011.81 386.414C1010.39 385.306 1008.34 385.558 1007.23 386.976L1010.66 389.65ZM1009.13 389.837L1047.64 419.921L1050.31 416.498L1011.81 386.414L1009.13 389.837ZM1047.64 419.921C1047.17 419.552 1047.08 418.871 1047.45 418.399L1050.88 421.073C1051.98 419.655 1051.73 417.606 1050.31 416.498L1047.64 419.921ZM1047.45 418.399L1019.38 454.337L1022.8 457.012L1050.88 421.073L1047.45 418.399ZM1019.38 454.337C1019.74 453.865 1020.43 453.782 1020.9 454.15L1018.22 457.573C1019.64 458.682 1021.69 458.43 1022.8 457.012L1019.38 454.337ZM1020.9 454.15L982.392 424.067L979.717 427.49L1018.22 457.573L1020.9 454.15ZM982.392 424.067C982.864 424.435 982.947 425.117 982.579 425.589L979.156 422.914C978.047 424.333 978.299 426.381 979.717 427.49L982.392 424.067ZM982.579 425.589L988.596 417.887L985.173 415.212L979.156 422.914L982.579 425.589Z" fill="#4C73E0" mask="url(#path-123-inside-1_807_653)"></path>
<path d="M1015.5 415.436C1015.6 415.617 1015.69 415.806 1015.77 416C1015.78 416.027 1015.8 416.054 1015.8 416.082C1015.48 416.298 1015.13 416.471 1014.77 416.598C1014.1 416.802 1013.52 417.215 1013.11 417.774C1012.66 418.311 1012.4 418.976 1012.36 419.671C1012.3 420.493 1011.99 421.28 1011.47 421.923C1010.98 422.582 1010.29 423.072 1009.5 423.325C1009.1 423.455 1008.73 423.656 1008.4 423.918C1008.34 423.9 1008.29 423.88 1008.23 423.86C1008.04 423.792 1007.86 423.712 1007.68 423.619C1008.12 423.178 1008.67 422.845 1009.26 422.645C1009.92 422.451 1010.51 422.048 1010.93 421.498C1011.37 420.96 1011.63 420.296 1011.67 419.602C1011.73 418.78 1012.03 417.994 1012.55 417.35C1013.05 416.692 1013.74 416.202 1014.52 415.949C1014.87 415.827 1015.2 415.654 1015.5 415.436Z" fill="white" stroke="white" stroke-width="0.111875"></path>
<path d="M1014.12 413.868C1014.29 414.012 1014.45 414.167 1014.6 414.331C1014.6 414.331 1014.6 414.331 1014.62 414.348C1014.18 414.793 1013.64 415.125 1013.04 415.317C1012.38 415.517 1011.81 415.922 1011.4 416.473C1010.96 417.003 1010.71 417.66 1010.67 418.346C1010.62 419.158 1010.32 419.934 1009.81 420.566C1009.32 421.217 1008.64 421.698 1007.86 421.943C1007.36 422.102 1006.9 422.382 1006.53 422.758C1006.36 422.614 1006.2 422.459 1006.05 422.295C1006.05 422.295 1006.05 422.295 1006.03 422.279C1006.47 421.834 1007.01 421.502 1007.61 421.311C1008.26 421.111 1008.84 420.705 1009.25 420.153C1009.68 419.624 1009.94 418.968 1009.97 418.283C1010.02 417.47 1010.32 416.693 1010.84 416.06C1011.33 415.411 1012.01 414.93 1012.78 414.686C1013.29 414.526 1013.75 414.246 1014.12 413.868Z" fill="white" stroke="white" stroke-width="0.111875"></path>
<path d="M1012.95 412.993C1012.51 413.429 1011.97 413.759 1011.38 413.956C1010.72 414.163 1010.14 414.576 1009.73 415.136C1009.28 415.674 1009.02 416.338 1008.98 417.03C1008.92 417.849 1008.61 418.634 1008.1 419.276C1007.6 419.936 1006.91 420.427 1006.13 420.681C1005.78 420.801 1005.45 420.971 1005.14 421.186C1005.04 421.006 1004.95 420.818 1004.87 420.625C1004.86 420.598 1004.85 420.571 1004.84 420.543C1005.16 420.326 1005.51 420.152 1005.88 420.025C1006.54 419.817 1007.12 419.402 1007.53 418.842C1007.98 418.306 1008.24 417.643 1008.29 416.952C1008.34 416.132 1008.65 415.346 1009.17 414.703C1009.67 414.044 1010.36 413.554 1011.14 413.301C1011.54 413.167 1011.91 412.964 1012.24 412.702C1012.3 412.719 1012.35 412.739 1012.4 412.759C1012.59 412.825 1012.78 412.903 1012.95 412.993Z" fill="white" stroke="white" stroke-width="0.111875"></path>
<path d="M1013.34 412.527C1013.1 412.405 1012.87 412.298 1012.62 412.206C1011.43 411.757 1010.13 411.668 1008.88 411.95C1007.64 412.233 1006.5 412.873 1005.62 413.793C1004.73 414.714 1004.14 415.873 1003.91 417.128C1003.67 418.382 1003.82 419.678 1004.31 420.853C1004.4 421.092 1004.51 421.324 1004.64 421.547C1004.89 421.986 1005.2 422.392 1005.54 422.758C1005.71 422.944 1005.9 423.121 1006.09 423.286C1006.16 423.343 1006.23 423.4 1006.31 423.457C1006.62 423.704 1006.96 423.92 1007.31 424.102C1007.54 424.225 1007.78 424.332 1008.03 424.423C1009.22 424.872 1010.52 424.961 1011.77 424.679C1013.01 424.397 1014.15 423.756 1015.03 422.836C1015.91 421.916 1016.51 420.757 1016.74 419.502C1016.97 418.247 1016.83 416.952 1016.34 415.776C1016.32 415.737 1016.3 415.697 1016.29 415.655C1016.2 415.459 1016.1 415.268 1015.99 415.084C1015.97 415.065 1015.96 415.022 1015.94 414.995C1015.7 414.591 1015.42 414.214 1015.1 413.872C1014.93 413.685 1014.75 413.509 1014.56 413.343C1014.48 413.284 1014.41 413.229 1014.34 413.172C1014.03 412.926 1013.69 412.71 1013.34 412.527ZM1014.12 413.87C1014.29 414.014 1014.45 414.168 1014.6 414.332C1014.6 414.332 1014.6 414.332 1014.62 414.349C1014.92 414.673 1015.18 415.03 1015.4 415.414C1015.41 415.431 1015.42 415.448 1015.43 415.467C1015.53 415.646 1015.62 415.833 1015.7 416.025C1015.71 416.052 1015.72 416.079 1015.73 416.107C1016.16 417.145 1016.27 418.283 1016.07 419.386C1015.86 420.488 1015.34 421.508 1014.57 422.323C1013.8 423.139 1012.81 423.715 1011.73 423.983C1010.64 424.252 1009.49 424.201 1008.43 423.837C1008.38 423.82 1008.32 423.8 1008.27 423.779C1008.08 423.712 1007.89 423.631 1007.72 423.539C1007.69 423.52 1007.67 423.501 1007.64 423.482C1007.32 423.322 1007.01 423.133 1006.73 422.916C1006.66 422.865 1006.6 422.814 1006.53 422.759C1006.36 422.615 1006.2 422.461 1006.05 422.297C1006.05 422.297 1006.05 422.297 1006.03 422.28C1005.72 421.962 1005.46 421.609 1005.24 421.229C1005.23 421.212 1005.22 421.195 1005.21 421.176C1005.11 420.997 1005.01 420.81 1004.94 420.618C1004.92 420.591 1004.91 420.564 1004.9 420.536C1004.48 419.498 1004.37 418.362 1004.58 417.262C1004.78 416.162 1005.3 415.145 1006.07 414.331C1006.84 413.518 1007.83 412.943 1008.92 412.675C1010 412.406 1011.14 412.456 1012.2 412.818C1012.26 412.835 1012.31 412.856 1012.37 412.876C1012.56 412.944 1012.74 413.024 1012.92 413.116C1012.94 413.136 1012.97 413.155 1013 413.16C1013.33 413.315 1013.63 413.501 1013.92 413.713C1013.98 413.764 1014.05 413.815 1014.12 413.87Z" fill="white" stroke="white" stroke-width="0.111875"></path>
<g filter="url(#filter2_f_807_653)">
<path fill-rule="evenodd" clip-rule="evenodd" d="M266.784 362.283C242.923 362.283 223.58 381.627 223.58 405.488V452.149C222.625 452.149 221.851 452.922 221.851 453.877V478.936C221.851 479.89 222.625 480.664 223.58 480.664V510.043C222.148 510.043 220.987 511.203 220.987 512.635V561.889C220.987 563.32 222.148 564.481 223.58 564.481V578.306C222.148 578.306 220.987 579.467 220.987 580.899V630.152C220.987 631.584 222.148 632.744 223.58 632.744V1063.93C223.58 1087.79 242.923 1107.13 266.784 1107.13H547.614C571.475 1107.13 590.819 1087.79 590.819 1063.93V614.598C592.251 614.598 593.411 613.438 593.411 612.006V530.781C593.411 529.349 592.251 528.189 590.819 528.189V405.488C590.819 381.627 571.475 362.283 547.614 362.283H266.784Z" fill="#596DA6" fill-opacity="0.2"></path>
<path d="M545.022 366.605H269.377C246.47 366.605 227.9 385.175 227.9 408.081V1061.34C227.9 1084.24 246.47 1102.81 269.377 1102.81H545.022C567.929 1102.81 586.499 1084.24 586.499 1061.34V408.081C586.499 385.175 567.929 366.605 545.022 366.605Z" fill="#596DA6" fill-opacity="0.2"></path>
<path d="M542.429 369.199H271.968C249.061 369.199 230.491 387.769 230.491 410.676V1058.74C230.491 1081.65 249.061 1100.22 271.968 1100.22H542.429C565.335 1100.22 583.905 1081.65 583.905 1058.74V410.676C583.905 387.769 565.335 369.199 542.429 369.199Z" fill="#596DA6" fill-opacity="0.2"></path>
<path d="M541.564 383.887H272.832C257.56 383.887 245.181 396.267 245.181 411.538V1057.88C245.181 1073.15 257.56 1085.53 272.832 1085.53H541.564C556.835 1085.53 569.215 1073.15 569.215 1057.88V411.538C569.215 396.267 556.835 383.887 541.564 383.887Z" fill="#596DA6" fill-opacity="0.2"></path>
<path fill-rule="evenodd" clip-rule="evenodd" d="M317.762 383.887H310.85C314.997 383.887 317.762 385.183 317.762 389.072V394.256C317.762 402.846 324.726 409.81 333.316 409.81H481.94C490.53 409.81 497.494 402.846 497.494 394.256V389.072C497.494 385.183 500.259 383.887 504.406 383.887H497.494H317.762Z" fill="#596DA6" fill-opacity="0.2"></path>
<path d="M444.787 398.577C448.128 398.577 450.836 395.869 450.836 392.528C450.836 389.188 448.128 386.479 444.787 386.479C441.446 386.479 438.738 389.188 438.738 392.528C438.738 395.869 441.446 398.577 444.787 398.577Z" fill="#596DA6" fill-opacity="0.2"></path>
<path d="M444.786 395.984C446.695 395.984 448.243 394.437 448.243 392.528C448.243 390.619 446.695 389.071 444.786 389.071C442.878 389.071 441.33 390.619 441.33 392.528C441.33 394.437 442.878 395.984 444.786 395.984Z" fill="#596DA6" fill-opacity="0.2"></path>
<path d="M424.911 389.071H389.483C387.574 389.071 386.026 390.619 386.026 392.528C386.026 394.437 387.574 395.984 389.483 395.984H424.911C426.819 395.984 428.367 394.437 428.367 392.528C428.367 390.619 426.819 389.071 424.911 389.071Z" fill="#596DA6" fill-opacity="0.2"></path>
</g>
<g filter="url(#filter3_df_807_653)">
<rect x="60" y="697.862" width="335.578" height="165.491" rx="9.19393" fill="#596DA6" fill-opacity="0.2"></rect>
<g clip-path="url(#clip0_807_653)">
<rect x="79.3076" y="721.766" width="177.443" height="22.9848" rx="2.75818" fill="url(#paint3_linear_807_653)"></rect>
<rect x="79.3076" y="753.025" width="177.443" height="22.9848" rx="2.75818" fill="url(#paint4_linear_807_653)"></rect>
<rect x="79.3076" y="784.285" width="193.072" height="11.0327" rx="2.75818" fill="url(#paint5_linear_807_653)"></rect>
<rect x="79.3076" y="803.592" width="193.072" height="11.0327" rx="2.75818" fill="url(#paint6_linear_807_653)"></rect>
<rect x="79.3076" y="822.899" width="193.072" height="16.5491" rx="2.75818" fill="url(#paint7_linear_807_653)"></rect>
</g>
<rect x="286.171" y="711.653" width="90.1005" height="137.909" rx="4.59696" fill="#C4C4C4"></rect>
<path fill-rule="evenodd" clip-rule="evenodd" d="M341.312 812.646H320.227C316.16 812.646 312.852 809.647 312.852 805.958V776.666C312.852 774.98 314.634 771.057 317.561 764.798C319.255 761.193 321.56 756.259 321.584 755.263C321.584 754.765 320.745 753.85 320.179 753.243C319.223 752.212 318.235 751.14 318.854 749.919C319.448 748.739 321.078 748.574 322.764 748.574H338.755C340.883 748.59 342.409 748.839 342.983 749.995C343.577 751.22 342.553 752.312 341.65 753.28C341.092 753.87 340.253 754.761 340.253 755.259C340.261 756.263 342.509 761.257 344.167 764.898C346.981 771.101 348.688 774.992 348.688 776.662V805.954C348.688 809.647 345.371 812.646 341.312 812.646ZM322.868 752.653C323.748 753.625 324.687 755.002 324.687 756.423C324.687 757.816 323.386 760.892 320.813 766.484C319.01 770.383 316.561 775.714 316.561 776.923V805.199C316.561 807.339 318.468 809.077 320.797 809.077H340.722C343.067 809.077 344.97 807.339 344.97 805.199V776.923C344.97 775.714 342.613 770.423 340.883 766.565C338.458 761.1 336.824 757.808 336.824 756.403C336.824 754.966 338.065 753.637 338.956 752.669C339.02 752.593 338.651 752.396 338.285 752.396H323.206C322.993 752.396 322.8 752.573 322.868 752.653Z" fill="#E5E5E5"></path>
<path fill-rule="evenodd" clip-rule="evenodd" d="M340.617 801.036C340.617 803.85 338.525 804.597 335.944 804.597H325.65C323.068 804.597 320.98 803.85 320.98 801.036V774.723C320.98 771.909 323.51 780.882 328.95 776.626C334.394 772.386 340.617 771.909 340.617 774.723V801.036Z" fill="#E5E5E5"></path>
</g>
<g filter="url(#filter4_df_807_653)">
<rect x="412.585" y="744.343" width="336.145" height="170.375" rx="9.20946" fill="#596DA6" fill-opacity="0.2"></rect>
<g clip-path="url(#clip1_807_653)">
<rect x="431.925" y="758.157" width="33.154" height="16.577" rx="3.68378" fill="#FC9F5B"></rect>
<path d="M440.407 763.24C441.478 763.24 442.296 763.537 442.863 764.131C443.436 764.725 443.722 765.568 443.722 766.659C443.722 767.75 443.436 768.593 442.863 769.187C442.296 769.781 441.478 770.078 440.407 770.078H437.506V763.24H440.407ZM440.231 768.731C440.811 768.731 441.232 768.559 441.495 768.213C441.764 767.861 441.899 767.343 441.899 766.659C441.899 765.975 441.764 765.461 441.495 765.115C441.232 764.763 440.811 764.587 440.231 764.587H439.288V768.731H440.231ZM444.943 770.078V763.24H450.268V764.618H446.725V766.006H449.543V767.301H446.725V768.7H450.403V770.078H444.943ZM453.261 768.7H456.69V770.078H451.479V763.24H453.261V768.7ZM459.493 763.24V770.078H457.711V763.24H459.493Z" fill="#FC9F5B"></path>
<rect x="431.925" y="783.023" width="177.742" height="23.0236" rx="2.76284" fill="url(#paint8_linear_807_653)"></rect>
<rect x="431.925" y="814.335" width="177.742" height="23.0236" rx="2.76284" fill="url(#paint9_linear_807_653)"></rect>
<rect x="431.925" y="845.647" width="193.398" height="11.0513" rx="2.76284" fill="url(#paint10_linear_807_653)"></rect>
<rect x="431.925" y="864.987" width="193.398" height="11.0513" rx="2.76284" fill="url(#paint11_linear_807_653)"></rect>
<rect x="431.925" y="884.327" width="193.398" height="16.577" rx="2.76284" fill="url(#paint12_linear_807_653)"></rect>
</g>
<path d="M692.55 831.144H691.514C690.064 828.45 689.027 824.928 687.991 821.405L689.856 823.27C695.451 827.622 700.424 826.793 700.424 826.793C700.424 826.793 701.875 818.919 696.28 814.774C691.514 811.045 687.163 811.045 685.919 811.252C685.712 810.008 685.712 808.972 685.505 808.144L682.604 808.351C682.604 814.982 677.009 827.207 675.144 831.144C671 831.559 667.685 835.081 667.685 839.433C667.685 843.991 671.414 847.721 675.973 847.721C678.252 847.721 680.117 846.892 681.568 845.442C680.739 843.577 680.117 841.505 680.117 839.433C680.117 837.361 680.739 835.288 681.568 833.424C680.739 832.595 679.496 831.973 678.46 831.559C679.91 828.45 682.397 822.856 684.054 817.468C684.883 822.234 686.541 827.829 688.613 832.18C686.127 833.631 684.262 836.324 684.262 839.433C684.262 843.991 687.991 847.721 692.55 847.721C697.109 847.721 700.839 843.991 700.839 839.433C700.839 834.874 697.109 831.144 692.55 831.144ZM675.973 836.324C674.315 836.324 672.865 837.775 672.865 839.433H670.793C670.793 836.532 673.072 834.252 675.973 834.252V836.324ZM692.55 836.324C690.892 836.324 689.442 837.775 689.442 839.433H687.37C687.37 836.532 689.649 834.252 692.55 834.252V836.324Z" fill="#E5E5E5"></path>
</g>
<path fill-rule="evenodd" clip-rule="evenodd" d="M248.162 343.662C224.301 343.662 204.958 363.005 204.958 386.867V433.528C204.003 433.528 203.229 434.301 203.229 435.256V460.315C203.229 461.269 204.003 462.043 204.958 462.043V491.422C203.526 491.422 202.365 492.582 202.365 494.014V543.267C202.365 544.699 203.526 545.86 204.958 545.86V559.685C203.526 559.685 202.365 560.846 202.365 562.277V611.531C202.365 612.963 203.526 614.123 204.958 614.123V1045.31C204.958 1069.17 224.301 1088.51 248.162 1088.51H528.992C552.853 1088.51 572.197 1069.17 572.197 1045.31V595.977C573.629 595.977 574.789 594.817 574.789 593.385V512.16C574.789 510.728 573.629 509.568 572.197 509.568V386.867C572.197 363.006 552.853 343.662 528.992 343.662H248.162Z" fill="white"></path>
<path d="M526.4 347.983H250.755C227.848 347.983 209.278 366.553 209.278 389.46V1042.71C209.278 1065.62 227.848 1084.19 250.755 1084.19H526.4C549.307 1084.19 567.877 1065.62 567.877 1042.71V389.46C567.877 366.553 549.307 347.983 526.4 347.983Z" fill="#E9EEF1"></path>
<path d="M523.808 350.575H253.348C230.441 350.575 211.871 369.145 211.871 392.052V1040.12C211.871 1063.03 230.441 1081.6 253.348 1081.6H523.808C546.715 1081.6 565.285 1063.03 565.285 1040.12V392.052C565.285 369.145 546.715 350.575 523.808 350.575Z" fill="white"></path>
<path d="M522.944 365.265H254.211C238.94 365.265 226.561 377.644 226.561 392.916V1039.26C226.561 1054.53 238.94 1066.91 254.211 1066.91H522.944C538.215 1066.91 550.595 1054.53 550.595 1039.26V392.916C550.595 377.644 538.215 365.265 522.944 365.265Z" fill="url(#pattern1_807_653)"></path>
<path fill-rule="evenodd" clip-rule="evenodd" d="M299.143 365.265H292.23C296.378 365.265 299.143 366.561 299.143 370.449V375.634C299.143 384.224 306.107 391.187 314.697 391.187H463.321C471.911 391.187 478.874 384.224 478.874 375.634V370.449C478.874 366.561 481.639 365.265 485.787 365.265H478.874H299.143Z" fill="white"></path>
<path d="M426.165 379.956C429.505 379.956 432.214 377.248 432.214 373.907C432.214 370.566 429.505 367.858 426.165 367.858C422.824 367.858 420.116 370.566 420.116 373.907C420.116 377.248 422.824 379.956 426.165 379.956Z" fill="#E9EEF1"></path>
<path d="M426.165 377.362C428.074 377.362 429.622 375.815 429.622 373.906C429.622 371.997 428.074 370.45 426.165 370.45C424.256 370.45 422.709 371.997 422.709 373.906C422.709 375.815 424.256 377.362 426.165 377.362Z" fill="white"></path>
<path d="M406.292 370.45H370.865C368.956 370.45 367.408 371.997 367.408 373.906C367.408 375.815 368.956 377.362 370.865 377.362H406.292C408.201 377.362 409.749 375.815 409.749 373.906C409.749 371.997 408.201 370.45 406.292 370.45Z" fill="#E9EEF1"></path>
<g filter="url(#filter5_d_807_653)">
<rect x="41.3789" y="679.24" width="335.578" height="170.088" rx="9.19393" fill="white"></rect>
<g clip-path="url(#clip2_807_653)">
<rect x="60.6865" y="693.031" width="33.0981" height="16.5491" rx="3.67757" fill="#FC9F5B"></rect>
<path d="M69.1544 698.124C70.2232 698.124 71.0403 698.42 71.6058 699.013C72.1781 699.606 72.4642 700.447 72.4642 701.537C72.4642 702.626 72.1781 703.468 71.6058 704.061C71.0403 704.654 70.2232 704.95 69.1544 704.95H66.2583V698.124H69.1544ZM68.9786 703.606C69.5578 703.606 69.9784 703.433 70.2405 703.088C70.5094 702.737 70.6438 702.22 70.6438 701.537C70.6438 700.854 70.5094 700.341 70.2405 699.996C69.9784 699.644 69.5578 699.468 68.9786 699.468H68.0374V703.606H68.9786ZM73.6824 704.95V698.124H78.9988V699.499H75.4614V700.885H78.2748V702.178H75.4614V703.575H79.1332V704.95H73.6824ZM81.9865 703.575H85.4101V704.95H80.2075V698.124H81.9865V703.575ZM88.2086 698.124V704.95H86.4295V698.124H88.2086Z" fill="#FC9F5B"></path>
<rect x="60.6865" y="717.854" width="177.443" height="22.9848" rx="2.75818" fill="url(#paint13_linear_807_653)"></rect>
<rect x="60.6865" y="749.114" width="177.443" height="22.9848" rx="2.75818" fill="url(#paint14_linear_807_653)"></rect>
<rect x="60.6865" y="780.373" width="193.072" height="11.0327" rx="2.75818" fill="url(#paint15_linear_807_653)"></rect>
<rect x="60.6865" y="799.68" width="193.072" height="11.0327" rx="2.75818" fill="url(#paint16_linear_807_653)"></rect>
<rect x="60.6865" y="818.987" width="193.072" height="16.5491" rx="2.75818" fill="url(#paint17_linear_807_653)"></rect>
</g>
<rect x="267.55" y="695.329" width="90.1005" height="137.909" rx="4.59696" fill="#C4C4C4"></rect>
<path fill-rule="evenodd" clip-rule="evenodd" d="M322.691 796.323H301.606C297.539 796.323 294.23 793.324 294.23 789.635V760.343C294.23 758.656 296.013 754.734 298.94 748.475C300.634 744.869 302.939 739.935 302.963 738.94C302.963 738.442 302.124 737.526 301.557 736.92C300.602 735.888 299.614 734.816 300.233 733.596C300.827 732.416 302.457 732.251 304.143 732.251H320.134C322.262 732.267 323.787 732.516 324.362 733.672C324.956 734.897 323.932 735.989 323.029 736.956C322.471 737.546 321.631 738.438 321.631 738.936C321.64 739.939 323.888 744.934 325.546 748.575C328.36 754.778 330.067 758.668 330.067 760.339V789.631C330.067 793.324 326.75 796.323 322.691 796.323ZM304.247 736.33C305.127 737.302 306.066 738.679 306.066 740.1C306.066 741.493 304.765 744.568 302.192 750.161C300.389 754.059 297.94 759.391 297.94 760.599V788.876C297.94 791.016 299.847 792.754 302.176 792.754H322.101C324.446 792.754 326.349 791.016 326.349 788.876V760.599C326.349 759.391 323.992 754.1 322.262 750.241C319.837 744.777 318.203 741.485 318.203 740.08C318.203 738.643 319.443 737.314 320.335 736.346C320.399 736.27 320.03 736.073 319.664 736.073H304.585C304.372 736.073 304.179 736.25 304.247 736.33Z" fill="#E5E5E5"></path>
<path fill-rule="evenodd" clip-rule="evenodd" d="M321.997 784.713C321.997 787.528 319.905 788.274 317.324 788.274H307.03C304.448 788.274 302.36 787.528 302.36 784.713V758.4C302.36 755.586 304.89 764.559 310.33 760.303C315.774 756.064 321.997 755.586 321.997 758.4V784.713Z" fill="#E5E5E5"></path>
</g>
<g filter="url(#filter6_d_807_653)">
<rect x="393.963" y="725.722" width="336.145" height="170.375" rx="9.20946" fill="white"></rect>
<g clip-path="url(#clip3_807_653)">
<rect x="413.303" y="739.536" width="33.154" height="16.577" rx="3.68378" fill="#FC9F5B"></rect>
<path d="M421.785 744.619C422.856 744.619 423.674 744.916 424.24 745.51C424.814 746.104 425.1 746.947 425.1 748.038C425.1 749.129 424.814 749.972 424.24 750.566C423.674 751.16 422.856 751.457 421.785 751.457H418.884V744.619H421.785ZM421.609 750.11C422.189 750.11 422.61 749.937 422.873 749.592C423.142 749.24 423.277 748.722 423.277 748.038C423.277 747.354 423.142 746.84 422.873 746.494C422.61 746.142 422.189 745.966 421.609 745.966H420.666V750.11H421.609ZM426.321 751.457V744.619H431.646V745.997H428.103V747.385H430.921V748.68H428.103V750.079H431.781V751.457H426.321ZM434.639 750.079H438.068V751.457H432.857V744.619H434.639V750.079ZM440.871 744.619V751.457H439.089V744.619H440.871Z" fill="#FC9F5B"></path>
<rect x="413.303" y="764.402" width="177.742" height="23.0236" rx="2.76284" fill="url(#paint18_linear_807_653)"></rect>
<rect x="413.303" y="795.714" width="177.742" height="23.0236" rx="2.76284" fill="url(#paint19_linear_807_653)"></rect>
<rect x="413.303" y="827.026" width="193.398" height="11.0513" rx="2.76284" fill="url(#paint20_linear_807_653)"></rect>
<rect x="413.303" y="846.366" width="193.398" height="11.0513" rx="2.76284" fill="url(#paint21_linear_807_653)"></rect>
<rect x="413.303" y="865.706" width="193.398" height="16.577" rx="2.76284" fill="url(#paint22_linear_807_653)"></rect>
</g>
<rect x="620.516" y="741.839" width="90.2527" height="138.142" rx="4.60473" fill="#C4C4C4"></rect>
<path d="M673.93 812.522H672.894C671.443 809.828 670.407 806.306 669.371 802.783L671.236 804.648C676.831 808.999 681.804 808.171 681.804 808.171C681.804 808.171 683.255 800.297 677.66 796.152C672.894 792.422 668.542 792.422 667.299 792.63C667.092 791.386 667.092 790.35 666.885 789.521L663.984 789.729C663.984 796.36 658.389 808.585 656.524 812.522C652.38 812.937 649.064 816.459 649.064 820.811C649.064 825.369 652.794 829.099 657.353 829.099C659.632 829.099 661.497 828.27 662.948 826.82C662.119 824.955 661.497 822.883 661.497 820.811C661.497 818.738 662.119 816.666 662.948 814.801C662.119 813.973 660.876 813.351 659.84 812.937C661.29 809.828 663.777 804.234 665.434 798.846C666.263 803.612 667.921 809.207 669.993 813.558C667.506 815.009 665.641 817.702 665.641 820.811C665.641 825.369 669.371 829.099 673.93 829.099C678.489 829.099 682.218 825.369 682.218 820.811C682.218 816.252 678.489 812.522 673.93 812.522ZM657.353 817.702C655.695 817.702 654.245 819.153 654.245 820.811H652.173C652.173 817.91 654.452 815.63 657.353 815.63V817.702ZM673.93 817.702C672.272 817.702 670.822 819.153 670.822 820.811H668.75C668.75 817.91 671.029 815.63 673.93 815.63V817.702Z" fill="#E5E5E5"></path>
</g>
<defs>
<filter id="filter0_f_807_653" x="805.602" y="440.08" width="507.943" height="864.848" filterUnits="userSpaceOnUse" color-interpolation-filters="sRGB">
<feFlood flood-opacity="0" result="BackgroundImageFix"></feFlood>
<feBlend mode="normal" in="SourceGraphic" in2="BackgroundImageFix" result="shape"></feBlend>
<feGaussianBlur stdDeviation="30" result="effect1_foregroundBlur_807_653"></feGaussianBlur>
</filter>
<filter id="filter1_f_807_653" x="502.151" y="0" width="578.107" height="867.951" filterUnits="userSpaceOnUse" color-interpolation-filters="sRGB">
<feFlood flood-opacity="0" result="BackgroundImageFix"></feFlood>
<feBlend mode="normal" in="SourceGraphic" in2="BackgroundImageFix" result="shape"></feBlend>
<feGaussianBlur stdDeviation="30" result="effect1_foregroundBlur_807_653"></feGaussianBlur>
</filter>
<pattern id="pattern0_807_653" patternContentUnits="objectBoundingBox" width="1" height="1">
<use xlink:href="#image0_807_653" transform="scale(0.00133333 0.000615764)"></use>
</pattern>
<filter id="filter2_f_807_653" x="160.987" y="302.283" width="492.424" height="864.848" filterUnits="userSpaceOnUse" color-interpolation-filters="sRGB">
<feFlood flood-opacity="0" result="BackgroundImageFix"></feFlood>
<feBlend mode="normal" in="SourceGraphic" in2="BackgroundImageFix" result="shape"></feBlend>
<feGaussianBlur stdDeviation="30" result="effect1_foregroundBlur_807_653"></feGaussianBlur>
</filter>
<filter id="filter3_df_807_653" x="0" y="637.862" width="455.578" height="285.491" filterUnits="userSpaceOnUse" color-interpolation-filters="sRGB">
<feFlood flood-opacity="0" result="BackgroundImageFix"></feFlood>
<feColorMatrix in="SourceAlpha" type="matrix" values="0 0 0 0 0 0 0 0 0 0 0 0 0 0 0 0 0 0 127 0" result="hardAlpha"></feColorMatrix>
<feOffset dy="3.67757"></feOffset>
<feGaussianBlur stdDeviation="6.43575"></feGaussianBlur>
<feColorMatrix type="matrix" values="0 0 0 0 0.768627 0 0 0 0 0.768627 0 0 0 0 0.768627 0 0 0 0.2 0"></feColorMatrix>
<feBlend mode="normal" in2="BackgroundImageFix" result="effect1_dropShadow_807_653"></feBlend>
<feBlend mode="normal" in="SourceGraphic" in2="effect1_dropShadow_807_653" result="shape"></feBlend>
<feGaussianBlur stdDeviation="30" result="effect2_foregroundBlur_807_653"></feGaussianBlur>
</filter>
<filter id="filter4_df_807_653" x="352.585" y="684.343" width="456.146" height="290.375" filterUnits="userSpaceOnUse" color-interpolation-filters="sRGB">
<feFlood flood-opacity="0" result="BackgroundImageFix"></feFlood>
<feColorMatrix in="SourceAlpha" type="matrix" values="0 0 0 0 0 0 0 0 0 0 0 0 0 0 0 0 0 0 127 0" result="hardAlpha"></feColorMatrix>
<feOffset dy="3.68378"></feOffset>
<feGaussianBlur stdDeviation="6.44662"></feGaussianBlur>
<feColorMatrix type="matrix" values="0 0 0 0 0.768627 0 0 0 0 0.768627 0 0 0 0 0.768627 0 0 0 0.2 0"></feColorMatrix>
<feBlend mode="normal" in2="BackgroundImageFix" result="effect1_dropShadow_807_653"></feBlend>
<feBlend mode="normal" in="SourceGraphic" in2="effect1_dropShadow_807_653" result="shape"></feBlend>
<feGaussianBlur stdDeviation="30" result="effect2_foregroundBlur_807_653"></feGaussianBlur>
</filter>
<pattern id="pattern1_807_653" patternContentUnits="objectBoundingBox" width="1" height="1">
<use xlink:href="#image1_807_653" transform="scale(0.000888889 0.000410509)"></use>
</pattern>
<filter id="filter5_d_807_653" x="28.5074" y="670.046" width="361.321" height="195.83" filterUnits="userSpaceOnUse" color-interpolation-filters="sRGB">
<feFlood flood-opacity="0" result="BackgroundImageFix"></feFlood>
<feColorMatrix in="SourceAlpha" type="matrix" values="0 0 0 0 0 0 0 0 0 0 0 0 0 0 0 0 0 0 127 0" result="hardAlpha"></feColorMatrix>
<feOffset dy="3.67757"></feOffset>
<feGaussianBlur stdDeviation="6.43575"></feGaussianBlur>
<feColorMatrix type="matrix" values="0 0 0 0 0.768627 0 0 0 0 0.768627 0 0 0 0 0.768627 0 0 0 0.2 0"></feColorMatrix>
<feBlend mode="normal" in2="BackgroundImageFix" result="effect1_dropShadow_807_653"></feBlend>
<feBlend mode="normal" in="SourceGraphic" in2="effect1_dropShadow_807_653" result="shape"></feBlend>
</filter>
<filter id="filter6_d_807_653" x="381.07" y="716.513" width="361.932" height="196.161" filterUnits="userSpaceOnUse" color-interpolation-filters="sRGB">
<feFlood flood-opacity="0" result="BackgroundImageFix"></feFlood>
<feColorMatrix in="SourceAlpha" type="matrix" values="0 0 0 0 0 0 0 0 0 0 0 0 0 0 0 0 0 0 127 0" result="hardAlpha"></feColorMatrix>
<feOffset dy="3.68378"></feOffset>
<feGaussianBlur stdDeviation="6.44662"></feGaussianBlur>
<feColorMatrix type="matrix" values="0 0 0 0 0.768627 0 0 0 0 0.768627 0 0 0 0 0.768627 0 0 0 0.2 0"></feColorMatrix>
<feBlend mode="normal" in2="BackgroundImageFix" result="effect1_dropShadow_807_653"></feBlend>
<feBlend mode="normal" in="SourceGraphic" in2="effect1_dropShadow_807_653" result="shape"></feBlend>
</filter>
<linearGradient id="paint0_linear_807_653" x1="803.968" y1="432.413" x2="663.893" y2="433.197" gradientUnits="userSpaceOnUse">
<stop stop-color="#4C73E0"></stop>
<stop offset="1" stop-color="#4C73E0" stop-opacity="0"></stop>
</linearGradient>
<linearGradient id="paint1_linear_807_653" x1="775.882" y1="464.327" x2="684.789" y2="465.146" gradientUnits="userSpaceOnUse">
<stop stop-color="#4C73E0"></stop>
<stop offset="1" stop-color="#4C73E0" stop-opacity="0"></stop>
</linearGradient>
<linearGradient id="paint2_linear_807_653" x1="750.35" y1="496.242" x2="640.462" y2="497.207" gradientUnits="userSpaceOnUse">
<stop stop-color="#4C73E0"></stop>
<stop offset="1" stop-color="#4C73E0" stop-opacity="0"></stop>
</linearGradient>
<linearGradient id="paint3_linear_807_653" x1="79.3076" y1="733.718" x2="251.127" y2="733.718" gradientUnits="userSpaceOnUse">
<stop stop-color="#ADADAD"></stop>
<stop offset="1" stop-color="#D8D8D8" stop-opacity="0"></stop>
</linearGradient>
<linearGradient id="paint4_linear_807_653" x1="79.3076" y1="764.977" x2="251.127" y2="764.977" gradientUnits="userSpaceOnUse">
<stop stop-color="#ADADAD"></stop>
<stop offset="1" stop-color="#D8D8D8" stop-opacity="0"></stop>
</linearGradient>
<linearGradient id="paint5_linear_807_653" x1="79.3076" y1="790.022" x2="266.262" y2="790.022" gradientUnits="userSpaceOnUse">
<stop stop-color="#D8D8D8"></stop>
<stop offset="1" stop-color="#D8D8D8" stop-opacity="0"></stop>
</linearGradient>
<linearGradient id="paint6_linear_807_653" x1="79.3076" y1="809.329" x2="266.262" y2="809.329" gradientUnits="userSpaceOnUse">
<stop stop-color="#D8D8D8"></stop>
<stop offset="1" stop-color="#D8D8D8" stop-opacity="0"></stop>
</linearGradient>
<linearGradient id="paint7_linear_807_653" x1="79.3076" y1="831.505" x2="266.262" y2="831.505" gradientUnits="userSpaceOnUse">
<stop stop-color="#ADADAD"></stop>
<stop offset="1" stop-color="#D8D8D8" stop-opacity="0"></stop>
</linearGradient>
<linearGradient id="paint8_linear_807_653" x1="431.925" y1="794.995" x2="604.035" y2="794.995" gradientUnits="userSpaceOnUse">
<stop stop-color="#ADADAD"></stop>
<stop offset="1" stop-color="#D8D8D8" stop-opacity="0"></stop>
</linearGradient>
<linearGradient id="paint9_linear_807_653" x1="431.925" y1="826.307" x2="604.035" y2="826.307" gradientUnits="userSpaceOnUse">
<stop stop-color="#ADADAD"></stop>
<stop offset="1" stop-color="#D8D8D8" stop-opacity="0"></stop>
</linearGradient>
<linearGradient id="paint10_linear_807_653" x1="431.925" y1="851.394" x2="619.194" y2="851.394" gradientUnits="userSpaceOnUse">
<stop stop-color="#D8D8D8"></stop>
<stop offset="1" stop-color="#D8D8D8" stop-opacity="0"></stop>
</linearGradient>
<linearGradient id="paint11_linear_807_653" x1="431.925" y1="870.734" x2="619.194" y2="870.734" gradientUnits="userSpaceOnUse">
<stop stop-color="#D8D8D8"></stop>
<stop offset="1" stop-color="#D8D8D8" stop-opacity="0"></stop>
</linearGradient>
<linearGradient id="paint12_linear_807_653" x1="431.925" y1="892.947" x2="619.194" y2="892.947" gradientUnits="userSpaceOnUse">
<stop stop-color="#ADADAD"></stop>
<stop offset="1" stop-color="#D8D8D8" stop-opacity="0"></stop>
</linearGradient>
<linearGradient id="paint13_linear_807_653" x1="60.6865" y1="729.807" x2="232.506" y2="729.807" gradientUnits="userSpaceOnUse">
<stop stop-color="#ADADAD"></stop>
<stop offset="1" stop-color="#D8D8D8" stop-opacity="0"></stop>
</linearGradient>
<linearGradient id="paint14_linear_807_653" x1="60.6865" y1="761.066" x2="232.506" y2="761.066" gradientUnits="userSpaceOnUse">
<stop stop-color="#ADADAD"></stop>
<stop offset="1" stop-color="#D8D8D8" stop-opacity="0"></stop>
</linearGradient>
<linearGradient id="paint15_linear_807_653" x1="60.6865" y1="786.11" x2="247.64" y2="786.11" gradientUnits="userSpaceOnUse">
<stop stop-color="#D8D8D8"></stop>
<stop offset="1" stop-color="#D8D8D8" stop-opacity="0"></stop>
</linearGradient>
<linearGradient id="paint16_linear_807_653" x1="60.6865" y1="805.417" x2="247.64" y2="805.417" gradientUnits="userSpaceOnUse">
<stop stop-color="#D8D8D8"></stop>
<stop offset="1" stop-color="#D8D8D8" stop-opacity="0"></stop>
</linearGradient>
<linearGradient id="paint17_linear_807_653" x1="60.6865" y1="827.593" x2="247.64" y2="827.593" gradientUnits="userSpaceOnUse">
<stop stop-color="#ADADAD"></stop>
<stop offset="1" stop-color="#D8D8D8" stop-opacity="0"></stop>
</linearGradient>
<linearGradient id="paint18_linear_807_653" x1="413.303" y1="776.374" x2="585.413" y2="776.374" gradientUnits="userSpaceOnUse">
<stop stop-color="#ADADAD"></stop>
<stop offset="1" stop-color="#D8D8D8" stop-opacity="0"></stop>
</linearGradient>
<linearGradient id="paint19_linear_807_653" x1="413.303" y1="807.686" x2="585.413" y2="807.686" gradientUnits="userSpaceOnUse">
<stop stop-color="#ADADAD"></stop>
<stop offset="1" stop-color="#D8D8D8" stop-opacity="0"></stop>
</linearGradient>
<linearGradient id="paint20_linear_807_653" x1="413.303" y1="832.773" x2="600.572" y2="832.773" gradientUnits="userSpaceOnUse">
<stop stop-color="#D8D8D8"></stop>
<stop offset="1" stop-color="#D8D8D8" stop-opacity="0"></stop>
</linearGradient>
<linearGradient id="paint21_linear_807_653" x1="413.303" y1="852.112" x2="600.572" y2="852.112" gradientUnits="userSpaceOnUse">
<stop stop-color="#D8D8D8"></stop>
<stop offset="1" stop-color="#D8D8D8" stop-opacity="0"></stop>
</linearGradient>
<linearGradient id="paint22_linear_807_653" x1="413.303" y1="874.326" x2="600.572" y2="874.326" gradientUnits="userSpaceOnUse">
<stop stop-color="#ADADAD"></stop>
<stop offset="1" stop-color="#D8D8D8" stop-opacity="0"></stop>
</linearGradient>
<clipPath id="clip0_807_653">
<rect width="193.072" height="117.682" fill="white" transform="translate(79.3076 721.766)"></rect>
</clipPath>
<clipPath id="clip1_807_653">
<rect width="193.398" height="142.747" fill="white" transform="translate(431.925 758.157)"></rect>
</clipPath>
<clipPath id="clip2_807_653">
<rect width="193.072" height="142.506" fill="white" transform="translate(60.6865 693.031)"></rect>
</clipPath>
<clipPath id="clip3_807_653">
<rect width="193.398" height="142.747" fill="white" transform="translate(413.303 739.536)"></rect>
</clipPath>
<image id="image0_807_653" width="750" height="1624" preserveAspectRatio="none"></image>
<image id="image1_807_653" width="1125" height="2436" preserveAspectRatio="none"></image>
</defs>
</svg>